<svg width="712" height="154" viewBox="0 0 712 154" fill="none" xmlns="http://www.w3.org/2000/svg">
<path d="M69.0469 152H38.7734V34.4219H0.00390625V9.22656H107.816V34.4219H69.0469V152ZM157.23 0.046875V31.0039C157.23 36.4076 157.035 41.5508 156.645 46.4336C156.319 51.3164 156.059 54.7669 155.863 56.7852H157.426C159.77 53.0091 162.536 49.9492 165.727 47.6055C168.982 45.2617 172.562 43.5365 176.469 42.4297C180.375 41.3229 184.574 40.7695 189.066 40.7695C196.944 40.7695 203.812 42.1693 209.672 44.9688C215.531 47.7031 220.089 52.0326 223.344 57.957C226.599 63.8164 228.227 71.4336 228.227 80.8086V152H198.441V88.2305C198.441 80.418 197.009 74.526 194.145 70.5547C191.28 66.5833 186.853 64.5977 180.863 64.5977C174.874 64.5977 170.154 65.9974 166.703 68.7969C163.253 71.5312 160.811 75.6003 159.379 81.0039C157.947 86.3424 157.23 92.8854 157.23 100.633V152H127.445V0.046875H157.23ZM303.617 40.5742C318.266 40.5742 329.496 43.7643 337.309 50.1445C345.121 56.5247 349.027 66.2253 349.027 79.2461V152H328.227L322.465 137.156H321.684C318.559 141.062 315.368 144.253 312.113 146.727C308.858 149.201 305.115 151.023 300.883 152.195C296.651 153.367 291.508 153.953 285.453 153.953C279.008 153.953 273.214 152.716 268.07 150.242C262.992 147.768 258.988 143.992 256.059 138.914C253.129 133.771 251.664 127.26 251.664 119.383C251.664 107.794 255.733 99.2656 263.871 93.7969C272.009 88.263 284.216 85.2031 300.492 84.6172L319.438 84.0312V79.2461C319.438 73.5169 317.94 69.3177 314.945 66.6484C311.951 63.9792 307.784 62.6445 302.445 62.6445C297.172 62.6445 291.996 63.3932 286.918 64.8906C281.84 66.388 276.762 68.276 271.684 70.5547L261.82 50.4375C267.615 47.3776 274.092 44.9688 281.254 43.2109C288.48 41.4531 295.935 40.5742 303.617 40.5742ZM319.438 101.414L307.914 101.805C298.279 102.065 291.573 103.79 287.797 106.98C284.086 110.171 282.23 114.37 282.23 119.578C282.23 124.135 283.565 127.391 286.234 129.344C288.904 131.232 292.387 132.176 296.684 132.176C303.064 132.176 308.435 130.288 312.797 126.512C317.224 122.736 319.438 117.365 319.438 110.398V101.414ZM441.801 40.7695C453.454 40.7695 462.829 43.9596 469.926 50.3398C477.022 56.6549 480.57 66.8112 480.57 80.8086V152H450.785V88.2305C450.785 80.418 449.353 74.526 446.488 70.5547C443.689 66.5833 439.262 64.5977 433.207 64.5977C424.092 64.5977 417.875 67.6901 414.555 73.875C411.234 80.0599 409.574 88.9792 409.574 100.633V152H379.789V42.8203H402.543L406.547 56.7852H408.207C410.551 53.0091 413.448 49.9492 416.898 47.6055C420.414 45.2617 424.288 43.5365 428.52 42.4297C432.816 41.3229 437.243 40.7695 441.801 40.7695ZM541.02 0.046875V68.0156C541.02 72.1172 540.857 76.2188 540.531 80.3203C540.206 84.4219 539.848 88.5234 539.457 92.625H539.848C541.866 89.7604 543.917 86.9284 546 84.1289C548.148 81.3294 550.427 78.6276 552.836 76.0234L583.402 42.8203H616.996L573.637 90.1836L619.633 152H585.258L553.812 107.762L541.02 118.016V152H511.234V0.046875H541.02ZM711.43 119.578C711.43 127 709.672 133.283 706.156 138.426C702.706 143.504 697.53 147.378 690.629 150.047C683.728 152.651 675.134 153.953 664.848 153.953C657.23 153.953 650.688 153.465 645.219 152.488C639.815 151.512 634.346 149.884 628.812 147.605V122.996C634.737 125.665 641.085 127.879 647.855 129.637C654.691 131.329 660.681 132.176 665.824 132.176C671.618 132.176 675.753 131.329 678.227 129.637C680.766 127.879 682.035 125.6 682.035 122.801C682.035 120.978 681.514 119.35 680.473 117.918C679.496 116.421 677.348 114.76 674.027 112.938C670.707 111.049 665.499 108.608 658.402 105.613C651.566 102.749 645.935 99.8516 641.508 96.9219C637.146 93.9922 633.891 90.5417 631.742 86.5703C629.659 82.5339 628.617 77.4232 628.617 71.2383C628.617 61.1471 632.523 53.5625 640.336 48.4844C648.214 43.3411 658.728 40.7695 671.879 40.7695C678.65 40.7695 685.095 41.4531 691.215 42.8203C697.4 44.1875 703.747 46.3685 710.258 49.3633L701.273 70.8477C695.87 68.5039 690.759 66.5833 685.941 65.0859C681.189 63.5885 676.339 62.8398 671.391 62.8398C667.029 62.8398 663.741 63.4258 661.527 64.5977C659.314 65.7695 658.207 67.5599 658.207 69.9688C658.207 71.7266 658.76 73.2891 659.867 74.6562C661.039 76.0234 663.253 77.5534 666.508 79.2461C669.828 80.8737 674.678 82.9896 681.059 85.5938C687.243 88.1328 692.615 90.8021 697.172 93.6016C701.729 96.3359 705.245 99.7539 707.719 103.855C710.193 107.892 711.43 113.133 711.43 119.578Z" fill="white"/>
</svg>
